<svg xmlns="http://www.w3.org/2000/svg" width="23" height="23" viewBox="0 0 23 23"><g><g><path fill="#F47B54" d="M19.065 21.255h-3.437V14.38c0-.186-.068-.38-.204-.483a.66.66 0 0 0-.484-.205H8.087a.66.66 0 0 0-.484.205c-.136.103-.204.297-.204.483l-.021 6.875H4V10.319c-.056-.028-.06-.057-.06-.085l7.584-7.907 7.563 7.907a.19.19 0 0 0-.022.085zM12 .845c0-.072-.11-.125-.196-.161a.718.718 0 0 0-.28-.054.665.665 0 0 0-.258.054c-.085.036-.164.09-.266.16L.653 11.652a.741.741 0 0 0-.182.495c.007.186.075.35.204.494.143.129.325.19.494.182a.763.763 0 0 0 .494-.204l.924-.967v10.292a.68.68 0 0 0 .687.687h4.791a.66.66 0 0 0 .484-.204.66.66 0 0 0 .204-.483l.021-6.875h5.479v6.875a.66.66 0 0 0 .204.483.66.66 0 0 0 .483.204h4.813a.66.66 0 0 0 .483-.204.66.66 0 0 0 .204-.483V11.65l.924.967a.533.533 0 0 0 .215.161.719.719 0 0 0 .28.054.691.691 0 0 0 .246-.054c.08-.035.154-.082.226-.14a.763.763 0 0 0 .204-.493.741.741 0 0 0-.183-.495z"/></g></g></svg>