<svg xmlns="http://www.w3.org/2000/svg" width="21" height="16" viewBox="0 0 21 16"><g><g><path fill="#0e0e2d" d="M20.067 14.379c.078.078.137.169.176.273.04.104.059.215.059.348a.89.89 0 0 1-.235.61.677.677 0 0 1-.273.175.938.938 0 0 1-.332.058H1.63a.938.938 0 0 1-.332-.058A1.161 1.161 0 0 1 1 15.609c-.054-.091-.112-.185-.151-.283A.89.89 0 0 1 .79 15a.964.964 0 0 1 .21-.621c.103-.079.194-.137.298-.176a.938.938 0 0 1 .332-.059h17.832c.117 0 .228.02.332.059.104.039.206.097.273.176zm0-6.778a.76.76 0 0 1 .176.274c.04.125.059.215.059.332 0 .117-.02.228-.059.332a.76.76 0 0 1-.176.273.857.857 0 0 1-.273.188H1.298A1.743 1.743 0 0 1 1 8.812a1.282 1.282 0 0 1-.151-.273.938.938 0 0 1-.059-.332c0-.117.02-.207.059-.332C.888 7.77.946 7.679 1 7.6c.103-.078.194-.136.298-.176a.938.938 0 0 1 .332-.058h17.832c.117 0 .228.02.332.058.104.04.206.098.273.176zM1 2a.83.83 0 0 1-.151-.248.917.917 0 0 1-.059-.342c0-.117.02-.228.059-.332C.888 1 .946.882 1 .804c.103-.078.194-.136.298-.175A.938.938 0 0 1 1.63.57h17.832c.117 0 .228.02.332.059.104.039.206.097.273.175.078.078.137.196.176.274.04.104.059.215.059.332 0 .13-.02.244-.059.342a.563.563 0 0 1-.176.248.505.505 0 0 1-.273.21.938.938 0 0 1-.332.06H1.63a.938.938 0 0 1-.332-.06A.73.73 0 0 1 1 2z"/></g></g></svg>