<svg xmlns="http://www.w3.org/2000/svg" width="20" height="23" viewBox="0 0 20 23"><g><g><path fill="#0e0e2d" d="M1.944 17.472c.056-.114.154-.236.247-.365.094-.107.183-.25.269-.365.415-.559.892-1.228 1.429-2.009.537-.733.805-1.636.805-2.567v-4.49c0-.774.13-1.497.387-2.17a5.49 5.49 0 0 1 1.074-1.762A5.148 5.148 0 0 1 7.777 2.55a4.653 4.653 0 0 1 2.01-.44c.73 0 1.406.147 2.03.44a4.934 4.934 0 0 1 1.622 1.193c.458.501.82 1.088 1.084 1.762a5.87 5.87 0 0 1 .398 2.17v4.49c0 .96.254 1.834.763 2.632.508.794.999 1.478 1.471 2.051.086.1.172.204.258.312.086.107.165.211.236.311zm6.285 3.04a2.152 2.152 0 0 1-.656-1.579H12c0 .616-.176 1.142-.613 1.58a2.152 2.152 0 0 1-1.58.655 2.152 2.152 0 0 1-1.578-.656zM17 14.207c-.4-.66-.618-1.34-.618-2.041v-4.49c0-.975-.168-1.888-.505-2.74a7.02 7.02 0 0 0-1.396-2.234 6.541 6.541 0 0 0-2.095-1.504 6.198 6.198 0 0 0-2.6-.548C8.87.65 8 .833 7.208 1.198a6.42 6.42 0 0 0-2.084 1.504 7.122 7.122 0 0 0-1.386 2.234 7.389 7.389 0 0 0-.505 2.74v4.49c0 .687-.233 1.35-.687 1.987-.458.637-.88 1.207-1.268 1.708a9.66 9.66 0 0 0-.816 1.257c-.2.38-.215.748-.043 1.106.158.315.412.512.763.591.35.079.69.118 1.02.118h3.932c0 1.067.358 1.884 1.074 2.6a3.541 3.541 0 0 0 2.6 1.074 3.541 3.541 0 0 0 2.6-1.074c.715-.716 1.074-1.533 1.074-2.6h4.017c.215 0 .501-.028.902-.086.387-.057.666-.265.838-.623.172-.358.15-.716-.064-1.074-.175-.358-.509-.766-.881-1.225A34.12 34.12 0 0 1 17 14.207z"/></g></g></svg>