<svg xmlns="http://www.w3.org/2000/svg" width="16" height="14" viewBox="0 0 16 14"><g><g opacity=".6"><path fill="#9b9eb0" d="M15.438 4.662L12 8.09a.502.502 0 0 1-.393.17.664.664 0 0 1-.223-.045C11.179 8.126 11 7.921 11 7.69V6H9.607c-1.964 0-3.214.35-3.91 1.144C5 8 4.758 9.314 5 11.367c.054.125 0 .25-.143.304a.296.296 0 0 1-.34-.098C4.456 11.483 3 9.474 3 7.689c0-2.393.786-5.143 6.607-5.143H11V.83c0-.232.179-.437.384-.526a.662.662 0 0 1 .223-.045c.152 0 .295.063.393.17l3.438 3.428a.566.566 0 0 1 0 .804zM13.32 9.09v2.313c0 1.42-1.151 2.597-2.571 2.597H3.321C1.901 14 .75 12.823.75 11.403V4a2.578 2.578 0 0 1 2.571-2.597h2.277c.152 0 .286.125.286.286 0 .142-.098.259-.232.311a4.85 4.85 0 0 0-1.188.51c-.044.018-.089.036-.143.036h-1c-.785 0-1.428.643-1.428 1.454v7.403c0 .786.643 1.428 1.428 1.428h7.429c.786 0 1.429-.642 1.429-1.428v-1.91c0-.108.062-.206.16-.26.179-.08.34-.233.482-.33a.28.28 0 0 1 .313-.072c.107.045.187.169.187.26z"/></g></g></svg>