<svg xmlns="http://www.w3.org/2000/svg" width="23" height="23" viewBox="0 0 23 23"><g><g><path fill="#0e0e2d" d="M9.556 13.574C9 13 8.75 12.39 8.75 11.63c0-.76.25-1.407.806-1.944A2.65 2.65 0 0 1 11.5 8.88c.76 0 1.407.269 1.944.806.556.537.806 1.185.806 1.944 0 .76-.25 1.37-.806 1.944a2.65 2.65 0 0 1-1.944.806 2.65 2.65 0 0 1-1.944-.806zm-.967-4.866c-.81.802-1.214 1.776-1.214 2.922 0 1.146.405 2.12 1.214 2.922.81.802 1.78 1.203 2.911 1.203 1.146 0 2.123-.401 2.933-1.203.809-.802 1.213-1.776 1.213-2.922 0-1.146-.404-2.12-1.213-2.922-.81-.802-1.787-1.203-2.933-1.203-1.132 0-2.102.401-2.911 1.203zM21 12.35c0 .021-.104.04-.176.053L18.268 13l-.268.757c0 .172-.087.34-.151.505-.065.165-.14.326-.226.483l-.344.688 1.354 2.234c.043.072.075.136.096.193.022.058.033.14.033.14l-.903.913a.987.987 0 0 1-.129-.053l-.107-.054-2.256-1.44-.709.366c-.172.086-.344.164-.515.268-.143 0-.344.104-.516.161l-.752.258L12.316 21c-.014 0-.039.09-.075.148a.755.755 0 0 1-.075.107H10.92a.373.373 0 0 1-.075-.118c-.022-.05-.04-.137-.054-.137l-.645-2.58-.73-.237C9.23 18.125 9 18.057 8.857 18c-.186-.1-.372-.19-.558-.29l-.71-.365-2.255 1.44a.867.867 0 0 1-.14.075.357.357 0 0 1-.14.032L4.153 18s.011-.082.033-.14a.694.694 0 0 1 .096-.171l1.397-2.342-.323-.666a5.448 5.448 0 0 1-.225-.462c-.065-.15-.13-.297-.13-.44L4.732 13l-2.513-.597A1.313 1.313 0 0 1 2 12.35a.376.376 0 0 1-.125-.075V11H2c0-.065.068-.086.111-.1l2.6-.58.236-.752C5 9.41 5 9.252 5.108 9.095c.065-.158.14-.33.226-.516l.344-.666-1.397-2.32a1.209 1.209 0 0 1-.096-.193.438.438 0 0 1-.033-.15l.903-.903a.987.987 0 0 1 .129.054l.107.053L7.59 5.915l.709-.365c.186-.1.372-.19.558-.269.143-.078.373-.146.559-.204l.73-.236.624-2.492a.763.763 0 0 1 .064-.215c.029-.057.057-.134.086-.134h1.268l.042.08a.63.63 0 0 1 .065.161l.559 2.6.751.258c.187.043.395.104.538.182.171.08.343.162.515.247l.71.366 2.212-1.418a.51.51 0 0 1 .28-.086l.902.88c0 .03-.011.072-.033.13a.695.695 0 0 1-.096.171l-1.354 2.256.344.688c.1.186.186.365.258.537.119.172.119.344.172.516l.236.751 2.557.58c.071.015.154.04.154.101h.146l-.021 1.275a.343.343 0 0 1-.125.075zm-1.637-3.19a3.924 3.924 0 0 0-.225-.656c-.138-.208-.19-.412-.29-.612l.945-1.59c.207-.302.3-.616.344-.988a1.124 1.124 0 0 0-.344-.967l-.967-.967c-.272-.272-.601-.38-.988-.38s-.723.13-1.01.316l-1.547.988c-.2-.1-.404-.194-.612-.304-.208-.061-.419-.14-.669-.212L13.648 2c-.071-.332-.236-.636-.494-.93a1.233 1.233 0 0 0-.967-.44h-1.375c-.386 0-.694.147-.923.44a2.32 2.32 0 0 0-.452.93L9 3.767c-.243.071-.468.154-.69.233-.222.107-.44.21-.656.325l-1.59-1.01A1.745 1.745 0 0 0 5.065 3c-.393 0-.72.108-.977.38l-.988.967a1.151 1.151 0 0 0-.323.967c.043.372.15.686.323.988L4.11 8c-.11.164-.172.357-.258.558-.086.2-.158.442-.215.601l-1.762.387c-.33.057-.64.218-.935.454-.293.294-.44.62-.44 1v1.382c0 .372.147.673.44.902.294.23.606.387.935.473l1.783.43c.058.2.126.39.204.569.08.179.138.354.247.526L3.1 17c-.171.245-.279.574-.322.946-.043.373.065.695.323.967l.988.967c.258.272.584.397.977.376.394-.021.727-.125 1-.312l1.59-1.01c.214.066.436.22.665.312.23.093.459.176.68.247l.438 1.762c.085.33.243.641.472.935.23.293.53.44.903.44h1.375c.386 0 .712-.147.977-.44.265-.294.426-.606.483-.935L14 19.472c.264-.072.48-.15.68-.237.2-.085.4-.179.601-.235l1.547.944c.287.187.623.29 1.01.312.387.021.716-.104.988-.376l.967-.967c.272-.272.387-.594.344-.967-.043-.372-.137-.701-.344-.946l-.945-1.632c.1-.186.152-.368.268-.569.079-.193.154-.397.226-.612l1.783-.43c.33-.086.641-.243.935-.473.293-.229.44-.53.44-.902V11c0-.38-.147-.706-.44-1-.294-.236-.606-.397-.935-.454z"/></g></g></svg>