<svg xmlns="http://www.w3.org/2000/svg" width="23" height="17" viewBox="0 0 23 17"><g><g><path fill="#F47B54" d="M14.926 14.485c-.688-.68-1.032-1.485-1.032-2.396 0-.931.344-1.737 1.032-2.417.687-.672 1.503-1.02 2.449-1.02.816 0 1.536.257 2.159.773.623.516 1.02 1.153 1.192 1.912 0 .072.004.14.011.204.007.065.01.125.01.183a.42.42 0 0 1 .044.172c0 .028.003.104.01.104.008 0 .011 0 .011.089a3.33 3.33 0 0 1-1.01 2.417 3.328 3.328 0 0 1-2.427.999c-.946 0-1.762-.34-2.45-1.02zm-12.375 0c-.688-.68-1.032-1.485-1.032-2.396 0-.931.344-1.737 1.032-2.417C3.238 9 4.054 8.652 5 8.652c.945 0 1.754.348 2.428 1.01.673.672 1.01 1.482 1.01 2.427a3.33 3.33 0 0 1-1.01 2.417A3.328 3.328 0 0 1 5 15.505c-.946 0-1.762-.34-2.45-1.02zM22 10.424c-.117-.738-.253-1.558-.404-2.424-.15-.938-.297-1.805-.44-2.636-.156-.83-.236-1.364-.28-1.632a1.142 1.142 0 0 0-.042-.323c-.072-.53-.287-1.167-.645-1.912C19.831.752 18.864.38 17.29.38a.68.68 0 0 0-.688.688.68.68 0 0 0 .688.687c.974 0 1.565.175 1.772.526.208.351.348.785.42 1.3a1.66 1.66 0 0 0 .042.365l.29 1.622c.187.838.305 1.737.462 2.697-.4-.265-.848-.54-1.343-.72a4.537 4.537 0 0 0-1.557-.269c-.874 0-1.68.219-2.375.656a4.796 4.796 0 0 0-1.793 1.708 5.103 5.103 0 0 0-.827-.247 5.767 5.767 0 0 0-1.214-.118c-.473 0-.877.039-1.166.118a4.448 4.448 0 0 0-.854.247 5.062 5.062 0 0 0-1.73-1.708A4.584 4.584 0 0 0 5 7.276c-.573 0-1.117.097-1.633.29C2.851 7.76 2.386 8 2 8.352c.128-.96.286-1.873.443-2.74.158-.866.258-1.421.3-1.665 0-.057.008-.118.022-.182a.844.844 0 0 0 .022-.183c.072-.515.213-.949.419-1.3.208-.35.794-.526 1.794-.526a.65.65 0 0 0 .462-.204.66.66 0 0 0 .204-.483.66.66 0 0 0-.204-.484A.65.65 0 0 0 5 .38c-1.597 0-2.568.372-2.933 1.117-.365.745-.576 1.382-.634 1.912a1.14 1.14 0 0 0-.043.322c-.043.269-.132.8-.268 1.623C1 6.177.846 7 .702 7.943l-.386 2.449c-.114.73-.172 1.131-.172 1.203a.146.146 0 0 0-.01.097c.007.035.01.068.01.096v.301c0 .659.13 1.278.387 1.858.258.58.609 1.053 1.053 1.526.416.437.96.78 1.547 1.031.587.25 1.21.376 1.869.376.673 0 1.3-.125 1.88-.376.58-.25 1.12-.594 1.525-1.031.437-.473.78-.946 1.031-1.526a4.635 4.635 0 0 0 .333-2.449 7.266 7.266 0 0 0-.107-.57 4.92 4.92 0 0 1 .59-.182c.251-.064.556-.096.914-.096a4.194 4.194 0 0 1 1.504.257 3.094 3.094 0 0 0-.118.57 5.553 5.553 0 0 0-.033.612c0 .659.13 1.278.387 1.858.258.58.609 1.053 1.094 1.526.403.437.918.78 1.506 1.031.587.25 1.21.376 1.869.376.625 0 1.3-.125 1.88-.376a4.864 4.864 0 0 0 1.525-1.031c.437-.473.78-.946 1.031-1.526.251-.58.376-1.2.376-1.858 0-.089-.003-.089-.01-.089-.008-.065-.011-.097-.011-.126a.994.994 0 0 0 .032-.118.23.23 0 0 0-.01-.118c0-.072-.062-.476-.188-1.214z"/></g></g></svg>