<svg xmlns="http://www.w3.org/2000/svg" width="15" height="15" viewBox="0 0 15 15"><g><g><path fill="#fff" d="M14.688 5.192l-3.43 3.428a.547.547 0 0 1-.4.17.662.662 0 0 1-.224-.045.578.578 0 0 1-.348-.526V6.504H8.857c-1.964 0-3.214.375-3.91 1.17-.724.83-.947 2.17-.661 4.223.018.103-.063.25-.179.304-.036.009-.107.018-.107.018a.296.296 0 0 1-.232-.116C3.705 12 2.286 10 2.286 8.219c0-2.393.714-5.143 6.571-5.143h1.429V1.36c0-.232.143-.437.348-.526a.663.663 0 0 1 .223-.045c.143 0 .295.063.402.21l3.429 3.388c.223.223.223.612 0 .804zM12.57 9.62v2.313A2.572 2.572 0 0 1 10 14.504H2.571A2.572 2.572 0 0 1 0 11.933V4.504a2.572 2.572 0 0 1 2.571-2.571h2.277c.152 0 .286.125.286.286 0 .142-.134.259-.232.285-.447.152-.848.33-1.188.496-.044.058-.089.076-.143.076h-1c-.785 0-1.428.643-1.428 1.428v7.429c0 .786.643 1.428 1.428 1.428H10c.786 0 1.429-.642 1.429-1.428V10c0-.085.062-.183.16-.237.179-.08.34-.196.482-.33a.292.292 0 0 1 .313-.072c.107.045.187.143.187.26z"/></g></g></svg>